<svg xmlns="http://www.w3.org/2000/svg" width="155" height="172" fill="none"><path fill="#00aeef" d="M70.248 1.281c-.49.487-.979 3.892-.979 7.59 0 7.588.881 8.561 8.316 8.561 7.434 0 8.315-.973 8.315-8.756 0-5.74-.294-6.908-1.957-7.784-2.445-1.265-12.228-1.07-13.695.39Zm12.521 6.81c.392 4.574-1.076 6.423-5.184 6.423-4.109 0-5.576-1.85-5.185-6.422.196-3.016.783-3.795 2.74-4.281 1.369-.39 3.52-.39 4.89 0 1.957.486 2.544 1.265 2.74 4.28ZM104.683 9.843c-1.663 1.654-1.663 128.335 0 129.989 1.565 1.557 12.717 1.557 14.282 0 1.663-1.654 1.663-128.335 0-129.989-.684-.68-3.815-1.167-7.141-1.167s-6.456.486-7.141 1.167Zm10.663 2.725c1.761.973 1.859 2.724 1.859 62.075 0 46.216-.294 61.395-1.174 62.271-1.957 1.945-7.435 1.459-8.609-.682-.587-1.264-.978-22.378-.978-61.783 0-53.027.195-59.935 1.565-61.298 1.761-1.751 4.598-1.946 7.337-.583ZM36.205 22.492c-.88.876-1.174 12.746-1.174 47.578 0 25.59.293 47.092.587 47.968.489 1.167 2.054 1.557 7.141 1.557 3.815 0 7.044-.487 7.728-1.168.88-.876 1.174-12.941 1.174-48.162 0-45.438-.098-46.995-1.858-47.968-2.642-1.362-12.13-1.265-13.598.195Zm9.978 2.724 2.543.973v44.076c0 32.984-.293 44.367-1.173 45.243-1.272 1.265-5.479 1.557-8.022.584-1.37-.487-1.566-5.449-1.566-45.243 0-41.449.098-44.66 1.761-45.535 2.153-1.265 3.327-1.265 6.457-.098ZM70.444 31.249c-1.663 1.654-1.663 137.092 0 138.746 1.565 1.556 12.717 1.556 14.282 0 1.663-1.654 1.663-137.092 0-138.746-.685-.681-3.815-1.168-7.141-1.168s-6.457.487-7.141 1.168Zm11.347 2.919c.88.875 1.174 17.027 1.174 66.648v65.481l-2.445 1.168c-1.761.778-3.424.876-5.185.194l-2.641-.875-.294-65.579c-.098-47.578.098-65.967.88-66.843 1.37-1.654 6.946-1.751 8.511-.194ZM139.313 35.14c-1.956 1.07-2.25 13.33-.391 15.179 1.565 1.557 12.913 1.557 14.282-.097.587-.681 1.174-3.99 1.272-7.395.196-5.157-.098-6.422-1.663-7.59-2.054-1.459-10.956-1.556-13.5-.096Zm11.935 6.909c.391 4.378-1.076 6.519-4.402 6.519-4.109 0-6.163-1.752-6.163-5.157 0-4.281 1.663-5.74 6.358-5.352 3.816.292 3.913.39 4.207 3.99ZM1.965 43.897c-.684.681-1.173 3.892-1.173 7.784 0 7.784 1.076 8.757 9.39 8.465 4.012-.195 5.675-.681 6.36-1.946 1.271-2.432 1.076-12.94-.294-14.303-.685-.68-3.815-1.167-7.141-1.167s-6.457.486-7.142 1.167Zm9.979 2.725c2.152.778 2.543 1.556 2.543 4.864 0 3.309-.391 4.087-2.446 5.06-1.76.778-3.423.876-5.184.194-2.152-.778-2.74-1.556-2.935-4.767-.49-5.546 2.446-7.492 8.022-5.351ZM138.922 65.303c-1.859 1.848-1.663 64.313.196 65.87.88.681 4.011 1.07 8.119.876l6.653-.292.489-32.011c.391-25.395.195-32.4-.783-33.762-.978-1.46-2.543-1.849-7.435-1.849-3.424 0-6.554.487-7.239 1.168Zm11.348 2.919c.88.875 1.174 8.756 1.174 29.578 0 15.665-.294 29.092-.587 29.968-.685 1.848-7.239 2.14-9 .389-.881-.876-1.174-8.854-1.174-30.162 0-26.465.098-28.995 1.761-29.87 2.25-1.363 6.359-1.363 7.826.097ZM1.965 73.67c-.88.681-1.174 6.325-.978 25.103L1.281 123l6.75.487c4.89.389 7.14.097 8.12-.779 1.76-1.751 1.858-46.897.097-48.648-1.272-1.265-12.326-1.557-14.283-.39Zm11.446 3.503c.783.876 1.076 7.59.88 22.087l-.293 20.821H4.215l-.293-20.919c-.098-11.48 0-21.405.196-22.086.684-1.654 7.923-1.654 9.293.097ZM36.009 133.605c-1.37 1.363-1.272 13.525.196 14.984.684.681 3.815 1.168 7.14 1.168 3.327 0 6.457-.487 7.142-1.168.685-.681 1.174-3.892 1.174-7.784 0-5.546-.293-6.713-1.956-7.589-2.446-1.265-12.229-1.07-13.696.389Zm10.859 2.53c1.37.779 1.858 2.043 1.858 4.865 0 4.184-1.76 5.838-6.163 5.838-3.326 0-4.793-2.141-4.402-6.519.294-3.211.685-3.795 3.228-4.281 1.663-.389 3.033-.681 3.229-.779.195 0 1.173.39 2.25.876ZM104.487 155.011c-.489.486-.978 3.892-.978 7.589 0 5.449.293 6.714 1.858 7.589 2.642 1.362 12.131 1.265 13.598-.194.685-.681 1.174-3.892 1.174-7.784 0-5.546-.293-6.714-1.956-7.589-2.446-1.265-12.229-1.071-13.696.389Zm10.859 2.53c2.641 1.459 2.641 8.27 0 9.729-4.794 2.53-8.902.292-8.902-4.865 0-4.864 4.402-7.2 8.902-4.864Z"/></svg>